<?xml version="1.0" standalone="no"?>
<!DOCTYPE svg PUBLIC "-//W3C//DTD SVG 20010904//EN"
 "http://www.w3.org/TR/2001/REC-SVG-20010904/DTD/svg10.dtd">
<svg version="1.0" xmlns="http://www.w3.org/2000/svg"
 width="192.000000pt" height="192.000000pt" viewBox="0 0 192.000000 192.000000"
 preserveAspectRatio="xMidYMid meet">
<metadata>
Created by potrace 1.14, written by Peter Selinger 2001-2017
</metadata>
<g transform="translate(0.000000,192.000000) scale(0.100000,-0.100000)"
fill="#000000" stroke="none">
<path d="M886 1763 c-41 -41 -78 -121 -92 -200 -3 -15 -10 -48 -16 -73 -6 -25
-11 -111 -13 -192 -3 -164 9 -257 60 -483 40 -177 119 -377 139 -354 15 18 53
120 76 208 28 105 31 592 5 786 -2 17 -6 56 -10 87 -3 32 -15 88 -26 125 -33
117 -72 147 -123 96z"/>
<path d="M343 1083 c-8 -24 -6 -51 11 -128 8 -38 47 -130 79 -185 66 -117 300
-360 345 -360 32 0 10 95 -51 215 -22 44 -47 94 -55 110 -35 70 -186 286 -230
329 -55 53 -86 59 -99 19z"/>
<path d="M1477 1056 c-29 -29 -56 -60 -62 -67 -79 -109 -187 -290 -229 -384
-15 -33 -31 -68 -37 -77 -5 -10 -12 -40 -15 -68 -7 -58 4 -64 52 -28 50 37
197 190 247 257 49 65 122 206 131 251 3 14 9 39 14 55 8 30 7 76 -2 102 -11
27 -48 12 -99 -41z"/>
<path d="M28 716 c-61 -31 14 -141 162 -240 59 -40 187 -102 228 -111 10 -2
44 -12 77 -21 108 -29 165 -38 165 -25 0 10 -122 122 -162 149 -13 9 -25 18
-28 21 -32 36 -260 201 -278 201 -7 0 -12 4 -12 9 0 8 -54 21 -107 26 -13 1
-33 -3 -45 -9z"/>
<path d="M1810 718 c-25 -4 -63 -17 -85 -30 -39 -21 -244 -169 -276 -198 -9
-8 -29 -26 -46 -40 -98 -83 -143 -124 -143 -131 0 -8 37 -6 85 5 94 21 122 29
186 52 122 43 204 92 298 176 120 110 111 189 -19 166z"/>
<path d="M940 290 c-8 -5 -25 -10 -38 -10 -14 0 -27 -9 -34 -25 -16 -35 12
-95 44 -96 95 -4 138 13 138 55 0 30 -12 44 -53 66 -43 23 -38 22 -57 10z"/>
<path d="M241 209 c-74 -21 -102 -42 -83 -61 21 -21 210 -19 337 3 61 11 116
21 123 24 28 10 9 23 -45 30 -32 5 -67 10 -78 11 -76 13 -195 9 -254 -7z"/>
<path d="M1405 213 c-119 -17 -116 -16 -107 -30 10 -16 225 -50 333 -52 167
-4 191 44 41 81 -67 16 -163 16 -267 1z"/>
</g>
</svg>
